<svg width="18" height="18" viewBox="0 0 18 18" fill="none" xmlns="http://www.w3.org/2000/svg">
<path d="M7.38388 3.11624C6.89573 2.62808 6.10427 2.62808 5.61612 3.11624C5.12796 3.60439 5.12796 4.39585 5.61612 4.88401L7.38388 3.11624ZM5.61612 13.1162C5.12796 13.6044 5.12796 14.3958 5.61612 14.884C6.10427 15.3722 6.89573 15.3722 7.38388 14.884L5.61612 13.1162ZM10.0858 10.4143L9.2019 9.53045L10.0858 10.4143ZM10.9697 6.70202L7.38388 3.11624L5.61612 4.88401L9.2019 8.46979L10.9697 6.70202ZM9.2019 9.53045L5.61612 13.1162L7.38388 14.884L10.9697 11.2982L9.2019 9.53045ZM9.2019 8.46979C9.4948 8.76268 9.4948 9.23755 9.2019 9.53045L10.9697 11.2982C12.2389 10.029 12.2389 7.97122 10.9697 6.70202L9.2019 8.46979Z" fill="#9E99A3"/>
</svg>
