<svg width="64" height="64" viewBox="0 0 64 64" fill="none" xmlns="http://www.w3.org/2000/svg">
<path fill-rule="evenodd" clip-rule="evenodd" d="M49.0669 31.9763C49.0669 33.1304 48.9495 34.2831 48.7187 35.4065C48.4936 36.5033 48.1603 37.5801 47.7236 38.6096C47.2969 39.6207 46.7677 40.5952 46.1493 41.5039C45.5401 42.4068 44.8384 43.254 44.0676 44.0261C43.2951 44.7951 42.4449 45.4949 41.5424 46.1067C40.6308 46.7207 39.6549 47.2492 38.6432 47.6777C37.6123 48.1121 36.5329 48.4451 35.4371 48.6697C34.3121 48.9011 33.1553 49.0192 31.9995 49.0192C30.8428 49.0192 29.686 48.9011 28.5627 48.6697C27.4651 48.4451 26.3859 48.1121 25.3559 47.6777C24.3441 47.2492 23.3673 46.7207 22.4557 46.1067C21.5532 45.4949 20.7031 44.7951 19.9323 44.0261C19.1605 43.254 18.4588 42.4068 17.8488 41.5039C17.2337 40.5952 16.7037 39.6207 16.2753 38.6096C15.8387 37.5801 15.5045 36.5033 15.2787 35.4065C15.0503 34.2831 14.9336 33.1304 14.9336 31.9763C14.9336 30.8212 15.0503 29.6661 15.2787 28.5452C15.5045 27.4483 15.8387 26.3699 16.2755 25.3421C16.7037 24.3303 17.2339 23.3549 17.8488 22.4461C18.4589 21.5424 19.1607 20.6969 19.9323 19.9239C20.7032 19.1548 21.5532 18.4567 22.4557 17.8459C23.3675 17.2292 24.3443 16.7008 25.3559 16.2715C26.386 15.8361 27.4651 15.5024 28.5628 15.2795C29.6861 15.0499 30.8428 14.9333 31.9996 14.9333C33.1555 14.9333 34.3121 15.0499 35.4372 15.2795C36.5331 15.5026 37.6123 15.8361 38.6432 16.2715C39.6549 16.7008 40.6308 17.2292 41.5425 17.8459C42.4451 18.4567 43.2952 19.1548 44.0676 19.9239C44.8385 20.6969 45.5403 21.5424 46.1495 22.4461C46.7677 23.3549 47.2969 24.3303 47.7236 25.3421C48.1603 26.3699 48.4936 27.4483 48.7187 28.5452C48.9495 29.6661 49.0669 30.8212 49.0669 31.9763ZM25.7808 18.812C21.7164 20.7287 18.6829 24.4684 17.7371 28.9755L17.7511 28.9756C18.2491 28.9802 24.2685 29.0359 31.1928 27.1987C28.6701 22.7232 25.9751 19.071 25.7808 18.812ZM17.4363 31.512C17.6945 31.5219 24.8957 31.6833 32.4003 29.4399C32.8179 30.2571 33.2171 31.0859 33.5829 31.9131C33.3912 31.968 33.1979 32.0245 33.0079 32.0879C25.1425 34.6276 21.1539 41.6936 21.1589 41.7011C18.8371 39.1238 17.4245 35.7152 17.4245 31.9763C17.4245 31.8684 17.4281 31.7628 17.4317 31.6564V31.6563C17.4333 31.6084 17.4349 31.5604 17.4363 31.512ZM41.6251 21.0531C39.0589 18.7937 35.6897 17.4232 31.9995 17.4232C30.8152 17.4232 29.666 17.5664 28.5652 17.831L28.5888 17.8627H28.5889C28.9341 18.3246 31.5899 21.8764 34.0137 26.3208C39.4683 24.2788 41.5549 21.1579 41.6237 21.0551L41.6251 21.0531ZM34.5408 34.336L34.5763 34.3247C36.6272 39.6472 37.4739 44.1044 37.6897 45.376C35.9404 46.1189 34.0179 46.5293 31.9995 46.5293C28.6193 46.5293 25.5159 45.3701 23.0415 43.4487C23.0719 43.3828 25.8801 37.3499 34.4796 34.3563C34.4997 34.3489 34.5203 34.3424 34.5408 34.336ZM40.1441 44.0461C43.4167 41.8409 45.7409 38.3391 46.3893 34.2829C46.0893 34.1864 42.0116 32.8973 37.3072 33.6505C39.2189 38.8967 39.9957 43.1691 40.1441 44.0461ZM36.1039 30.5999C35.8013 29.8899 35.4737 29.1835 35.1355 28.4895C40.8531 26.1577 43.1975 22.8131 43.2543 22.732L43.2552 22.7308C45.3001 25.2097 46.5361 28.3763 46.5695 31.8264C46.5655 31.8256 46.5596 31.8244 46.5521 31.8228C46.1696 31.7432 41.3299 30.7367 36.4189 31.3538C36.3164 31.1042 36.2115 30.8545 36.1039 30.5999Z" fill="white"/>
</svg>
